# xmcd CD database file
#
# Track frame offsets:
#	150
#	22840
#	39636
#	61170
#	79563
#	103155
#	122796
#	139521
#	155946
#	184146
#	204185
#	228898
#	245734
#
# Disc length: 3516 seconds
#
# Revision: 6
# Processed by: cddbd v1.5.2PL0 Copyright (c) Steve Scherf et al.
# Submitted via: CDex 1.70beta3
#
DISCID=a70dba0d
DTITLE=YUKI - うれしくって抱きあうよ
DYEAR=2010
DGENRE=J-Pop
TTITLE0=朝が来る
TTITLE1=プレゼント
TTITLE2=COSMIC BOX
TTITLE3=ランデヴー
TTITLE4=just life! all right!
TTITLE5=チャイニーズガール
TTITLE6=恋愛模様
TTITLE7=さようなら、おかえり
TTITLE8=うれしくって抱きあうよ
TTITLE9=ミス・イエスタディ
TTITLE10=汽車に乗って
TTITLE11=同じ手
TTITLE12=夜が来る
EXTD=YEAR: 2010
EXTT0=
EXTT1=
EXTT2=
EXTT3=
EXTT4=
EXTT5=
EXTT6=
EXTT7=
EXTT8=
EXTT9=
EXTT10=
EXTT11=
EXTT12=
PLAYORDER=
